<svg width="40" height="40" viewBox="0 0 40 40" fill="none" xmlns="http://www.w3.org/2000/svg">
<g clip-path="url(#clip0_2_2)">
<path d="M33.5306 23.1235C33.5306 25.9273 32.3876 28.6163 30.3532 30.5989C28.3188 32.5816 25.5595 33.6953 22.6824 33.6953C20.2761 33.6953 18.0473 32.9264 16.2525 31.6386L31.4201 16.8573C32.7416 18.6064 33.5306 20.7784 33.5306 23.1235Z" fill="#FFEAAA"/>
<path d="M33.3925 30.5815L35.6607 25.2571L40 30.1393L33.3925 30.5815Z" fill="#FFEAAA"/>
<path d="M35.6607 21.0476L33.4122 15.704L40 16.1653L35.6607 21.0476Z" fill="#FFEAAA"/>
<path d="M24.8521 35.7712L30.3156 33.5608L29.8422 40L24.8521 35.7712Z" fill="#FFEAAA"/>
<path d="M15.0493 33.5608L20.5128 35.7712L15.5227 39.9808L15.0493 33.5608Z" fill="#FFEAAA"/>
<path d="M33.6686 3.90197L36.4891 6.65064L5.7791 36.5785L2.95859 33.8299L33.6686 3.90197Z" fill="#FFEAAA"/>
<path fill-rule="evenodd" clip-rule="evenodd" d="M18.5602 6.7852L21.4793 8.5728L20.4734 5.36281L23.1361 3.19077L19.7239 3.13311L18.4024 0L17.2584 3.17155L13.8067 3.40221L16.5483 5.43969L15.7199 8.70735L18.5602 6.7852ZM12.6824 14.1086L14.9704 15.5118L14.1815 12.9938L16.2525 11.3215L13.57 11.2638L12.5641 8.82268L11.6765 11.3022L8.99408 11.4752L11.144 13.0706L10.4734 15.6079L12.6824 14.1086Z" fill="#FFEAAA"/>
<path d="M10.8481 1.01874C7.31755 3.22922 4.93097 7.13119 4.93097 11.5905C4.93097 16.0499 7.31755 19.9519 10.9073 22.1624C4.85207 22.1624 0 17.4339 0 11.5905C0 8.78675 1.14292 6.09776 3.17734 4.11516C5.21176 2.13255 7.97102 1.01874 10.8481 1.01874Z" fill="#FFEAAA"/>
</g>
<defs>
<clipPath id="clip0_2_2">
<rect width="40" height="40" fill="white"/>
</clipPath>
</defs>
</svg>
